<svg xmlns="http://www.w3.org/2000/svg"
    xmlns:xlink="http://www.w3.org/1999/xlink" width="512" zoomAndPan="magnify" viewBox="0 0 384 383.999986" height="512" preserveAspectRatio="xMidYMid meet" version="1.0">
    <defs>
        <clipPath id="39622ef59f">
            <path d="M 39.203125 39.496094 L 344.453125 39.496094 L 344.453125 249 L 39.203125 249 Z M 39.203125 39.496094 " clip-rule="nonzero"/>
        </clipPath>
        <clipPath id="2fe309846b">
            <path d="M 39.203125 135 L 344.453125 135 L 344.453125 344.746094 L 39.203125 344.746094 Z M 39.203125 135 " clip-rule="nonzero"/>
        </clipPath>
        <clipPath id="ea3d235b37">
            <path d="M 39.203125 39.496094 L 249 39.496094 L 249 344.746094 L 39.203125 344.746094 Z M 39.203125 39.496094 " clip-rule="nonzero"/>
        </clipPath>
        <clipPath id="09ef096e89">
            <path d="M 135 39.496094 L 344.453125 39.496094 L 344.453125 344.746094 L 135 344.746094 Z M 135 39.496094 " clip-rule="nonzero"/>
        </clipPath>
    </defs>
    <path fill="#337b80" d="M 41.976562 192.121094 C 41.976562 109.199219 109.066406 41.980469 191.828125 41.980469 C 274.386719 41.980469 341.390625 108.882812 341.679688 191.597656 L 327.453125 191.644531 C 327.191406 116.597656 266.257812 55.972656 191.355469 56.234375 C 116.636719 56.496094 56.203125 117.257812 56.203125 192.121094 Z M 41.976562 192.121094 " fill-opacity="1" fill-rule="evenodd"/>
    <g clip-path="url(#39622ef59f)">
        <path stroke-linecap="butt" transform="matrix(0.291824, 0, 0, 0.292385, 18.484865, -86.522235)" fill="none" stroke-linejoin="miter" d="M 80.499427 953.001284 C 80.499427 669.39624 310.397417 439.4982 593.998507 439.4982 C 876.903544 439.4982 1106.50705 668.314084 1107.497586 951.211051 L 1058.747165 951.37137 C 1057.850329 694.699988 849.048073 487.353546 592.378847 488.248662 C 336.338745 489.143779 129.249848 696.95782 129.249848 953.001284 Z M 80.499427 953.001284 " stroke="#337b80" stroke-width="17.188" stroke-opacity="1" stroke-miterlimit="8"/>
    </g>
    <path fill="#bb2d2d" d="M 341.679688 192.121094 C 341.679688 275.042969 274.589844 342.261719 191.828125 342.261719 C 109.273438 342.261719 42.265625 275.359375 41.976562 192.644531 L 56.203125 192.597656 C 56.464844 267.644531 117.398438 328.265625 192.300781 328.003906 C 267.019531 327.742188 327.453125 266.984375 327.453125 192.121094 Z M 341.679688 192.121094 " fill-opacity="1" fill-rule="evenodd"/>
    <g clip-path="url(#2fe309846b)">
        <path stroke-linecap="butt" transform="matrix(0.291824, 0, 0, 0.292385, 18.484865, -86.522235)" fill="none" stroke-linejoin="miter" d="M 1107.497586 953.001284 C 1107.497586 1236.606328 877.599596 1466.504368 593.998507 1466.504368 C 311.106855 1466.504368 81.489963 1237.688484 80.499427 954.791517 L 129.249848 954.631198 C 130.146684 1211.30258 338.94894 1418.635662 595.618166 1417.740546 C 851.658268 1416.845429 1058.747165 1209.044748 1058.747165 953.001284 Z M 1107.497586 953.001284 " stroke="#bb2d2d" stroke-width="17.188" stroke-opacity="1" stroke-miterlimit="8"/>
    </g>
    <path fill="#824269" d="M 191.972656 312.4375 C 125.734375 312.4375 72.035156 258.636719 72.035156 192.265625 C 72.035156 126.0625 125.476562 72.328125 191.554688 72.097656 L 191.59375 83.507812 C 131.644531 83.714844 83.214844 132.582031 83.421875 192.648438 C 83.632812 252.566406 132.171875 301.027344 191.972656 301.027344 Z M 191.972656 312.4375 " fill-opacity="1" fill-rule="evenodd"/>
    <g clip-path="url(#ea3d235b37)">
        <path stroke-linecap="butt" transform="matrix(0.291824, 0, 0, 0.292385, 18.484865, -86.522235)" fill="none" stroke-linejoin="miter" d="M 594.493774 1364.50114 C 367.513849 1364.50114 183.501758 1180.494533 183.501758 953.495602 C 183.501758 727.07115 366.630398 543.291661 593.061513 542.503424 L 593.19537 581.527841 C 387.766289 582.235919 221.811397 749.368908 222.520834 954.804877 C 223.243658 1159.733169 389.573348 1325.476723 594.493774 1325.476723 Z M 594.493774 1364.50114 " stroke="#824269" stroke-width="17.188" stroke-opacity="1" stroke-miterlimit="8"/>
    </g>
    <path fill="#ffffff" d="M 191.972656 72.097656 C 258.214844 72.097656 311.914062 125.898438 311.914062 192.265625 C 311.914062 258.472656 258.472656 312.207031 192.394531 312.4375 L 192.355469 301.027344 C 252.304688 300.816406 300.734375 251.953125 300.527344 191.886719 C 300.316406 131.96875 251.777344 83.503906 191.972656 83.503906 Z M 191.972656 72.097656 " fill-opacity="1" fill-rule="evenodd"/>
    <g clip-path="url(#09ef096e89)">
        <path stroke-linecap="butt" transform="matrix(0.291824, 0, 0, 0.292385, 18.484865, -86.522235)" fill="none" stroke-linejoin="miter" d="M 594.493774 542.503424 C 821.487085 542.503424 1005.499177 726.510032 1005.499177 953.495602 C 1005.499177 1179.933415 822.370536 1363.712903 595.939421 1364.50114 L 595.805565 1325.476723 C 801.234645 1324.755286 967.189538 1157.635656 966.4801 952.199687 C 965.757277 747.271396 799.427587 581.514481 594.493774 581.514481 Z M 594.493774 542.503424 " stroke="#ffffff" stroke-width="17.188" stroke-opacity="1" stroke-miterlimit="8"/>
    </g>
    <path stroke-linecap="butt" transform="matrix(0.291824, 0, 0, 0.292385, 18.484865, -86.522235)" fill-opacity="1" fill="#efae4e" fill-rule="evenodd" stroke-linejoin="miter" d="M 278.499489 953.001284 C 278.499489 778.199683 419.972086 636.504041 594.493774 636.504041 C 768.587123 636.504041 909.885707 777.531685 910.501445 951.892408 L 880.504275 951.999288 C 879.942079 793.777386 751.453532 665.949373 593.503239 666.497131 C 435.941129 667.058249 308.496659 795.166821 308.496659 953.001284 Z M 278.499489 953.001284 " stroke="#efae4e" stroke-width="17.188" stroke-opacity="1" stroke-miterlimit="8"/>
    <path stroke-linecap="butt" transform="matrix(0.291824, 0, 0, 0.292385, 18.484865, -86.522235)" fill-opacity="1" fill="#000000" fill-rule="evenodd" stroke-linejoin="miter" d="M 910.501445 953.001284 C 910.501445 1127.802885 769.015463 1269.498527 594.493774 1269.498527 C 420.413812 1269.498527 279.115228 1128.470883 278.499489 954.11016 L 308.496659 954.00328 C 309.058855 1112.225182 437.547403 1240.053195 595.497696 1239.505437 C 753.059806 1238.944319 880.504275 1110.835747 880.504275 953.001284 Z M 910.501445 953.001284 " stroke="#000000" stroke-width="17.188" stroke-opacity="1" stroke-miterlimit="8"/>
    <path stroke-linecap="butt" transform="matrix(0.291824, 0, 0, 0.292385, 18.484865, -86.522235)" fill-opacity="1" fill="#8f7a5b" fill-rule="evenodd" stroke-linejoin="miter" d="M 594.493774 722.502046 C 722.0721 722.502046 825.502771 825.921428 825.502771 953.495602 C 825.502771 1080.762497 722.567368 1184.04828 595.310297 1184.502518 L 595.229983 1162.565478 C 710.694325 1162.16468 803.965311 1068.230863 803.563743 952.774165 C 803.162174 837.584666 709.677018 744.425726 594.493774 744.425726 Z M 594.493774 722.502046 " stroke="#8f7a5b" stroke-width="17.188" stroke-opacity="1" stroke-miterlimit="8"/>
    <path stroke-linecap="butt" transform="matrix(0.291824, 0, 0, 0.292385, 18.484865, -86.522235)" fill-opacity="1" fill="#d05519" fill-rule="evenodd" stroke-linejoin="miter" d="M 594.493774 1184.502518 C 466.915449 1184.502518 363.498164 1081.083136 363.498164 953.495602 C 363.498164 826.242067 466.433567 722.942925 593.690637 722.502046 L 593.770951 744.425726 C 478.30661 744.839885 385.035623 838.760341 385.437192 954.230399 C 385.83876 1069.406539 479.323917 1162.565478 594.493774 1162.565478 Z M 594.493774 1184.502518 " stroke="#d05519" stroke-width="17.188" stroke-opacity="1" stroke-miterlimit="8"/>
    <path stroke-linecap="butt" transform="matrix(0.291824, 0, 0, 0.292385, 18.484865, -86.522235)" fill-opacity="1" fill="#335480" fill-rule="evenodd" stroke-linejoin="miter" d="M 432.501025 953.001284 C 432.501025 863.81025 505.024303 791.506194 594.493774 791.506194 C 683.749076 791.506194 756.19204 863.462891 756.49991 952.440166 L 741.159991 952.493606 C 740.878893 871.759421 674.981496 806.549499 593.985121 806.830058 C 513.18953 807.110617 447.827557 872.480858 447.827557 953.001284 Z M 432.501025 953.001284 " stroke="#335480" stroke-width="17.188" stroke-opacity="1" stroke-miterlimit="8"/>
    <path stroke-linecap="butt" transform="matrix(0.291824, 0, 0, 0.292385, 18.484865, -86.522235)" fill-opacity="1" fill="#367230" fill-rule="evenodd" stroke-linejoin="miter" d="M 756.49991 953.001284 C 756.49991 1042.192318 683.976631 1114.496374 594.493774 1114.496374 C 505.251859 1114.496374 432.808894 1042.539677 432.501025 953.562402 L 447.827557 953.508962 C 448.122041 1034.243147 514.019439 1099.453069 595.015814 1099.17251 C 675.811404 1098.878591 741.173377 1033.53507 741.173377 953.001284 Z M 756.49991 953.001284 " stroke="#367230" stroke-width="17.188" stroke-opacity="1" stroke-miterlimit="8"/>
    <path fill="#000000" d="M 162.644531 192.121094 C 162.644531 175.972656 175.710938 162.882812 191.828125 162.882812 C 207.945312 162.882812 221.011719 175.972656 221.011719 192.121094 C 221.011719 208.269531 207.945312 221.359375 191.828125 221.359375 C 175.710938 221.359375 162.644531 208.269531 162.644531 192.121094 Z M 162.644531 192.121094 " fill-opacity="1" fill-rule="evenodd"/>
</svg>